<?xml version="1.0" standalone="no"?><!DOCTYPE svg PUBLIC "-//W3C//DTD SVG 1.1//EN" "http://www.w3.org/Graphics/SVG/1.1/DTD/svg11.dtd"><svg t="1576656018901" class="icon" viewBox="0 0 1025 1024" version="1.1" xmlns="http://www.w3.org/2000/svg" p-id="1275" xmlns:xlink="http://www.w3.org/1999/xlink" width="64.0625" height="64"><defs><style type="text/css"></style></defs><path d="M52.828626 275.691041c5.10539 97.002403-10.210779 196.557502 25.526948 288.454515 5.10539 10.210779 7.658084 22.974253 20.421559 30.632338 2.552695-25.526948-5.10539-48.501202-7.658085-71.475455-17.868864-160.819774 15.316169-303.770684 140.398215-416.089256C305.545413 40.843117 394.889732 10.210779 499.55022 0c-12.763474 15.316169-28.079643 17.868864-40.843117 22.974253C346.388531 71.475455 244.280738 137.845521 193.226841 255.269483c-30.632338 68.92276-33.185033 140.398215-7.658084 211.87367 10.210779-38.290422 17.868864-79.13354 30.632338-117.423962C259.596907 211.873671 338.730446 104.660488 486.786746 61.264676c168.477858-51.053897 367.588055 33.185033 444.1689 194.004807-33.185033-28.079643-56.159286-45.948507-79.13354-66.370066-102.107793-86.791624-216.97906-99.555098-339.508412-51.053896-122.529352 48.501202-191.452112 142.95091-211.87367 273.138346-7.658084 51.053897-5.10539 99.555098 15.316169 145.503605 40.843117 86.791624 145.503605 102.107793 209.320975 33.185033 22.974253-22.974253 40.843117-51.053897 58.711981-76.580845 7.658084-12.763474 17.868864-22.974253 33.185033-22.974253 15.316169-2.552695 33.185033-2.552695 43.395812 7.658084 10.210779 12.763474-7.658084 22.974253-12.763474 33.185033-10.210779 25.526948-20.421559 53.606591-25.526948 81.686234-12.763474 63.817371-38.290422 119.976657-79.13354 165.925164-102.107793 114.871267-296.1126 119.976657-416.089256 10.210779-102.107793-91.897014-135.292826-211.873671-125.082047-347.166496 7.658084-58.711981 22.974253-114.871267 51.053897-165.925164z m33.185032 513.09166c38.290422 28.079643 66.370065 63.817371 107.213183 89.344319 109.765878 68.92276 222.08445 63.817371 331.850327 7.658084 109.765878-53.606591 173.583248-148.0563 186.346723-270.585651 5.10539-40.843117 5.10539-81.686234-10.21078-119.976657-40.843117-97.002403-145.503605-117.423962-219.531755-40.843117-20.421559 22.974253-40.843117 48.501202-58.711981 71.475455-20.421559 25.526948-43.395812 25.526948-71.475455 17.868864-12.763474-2.552695-17.868864-10.210779-7.658084-20.421559 28.079643-28.079643 33.185033-66.370065 40.843117-104.660488C438.285544 160.819774 713.976586 112.318572 872.243665 242.506008c63.817371 51.053897 99.555098 119.976657 117.423962 199.110197 25.526948 112.318572 15.316169 222.08445-35.737728 324.192243-7.658084-112.318572 22.974253-227.189839-48.501202-329.297633 38.290422 181.241333 25.526948 349.719191-119.976656 485.012017-63.817371 58.711981-181.241333 107.213183-255.269483 102.107793 97.002403-38.290422 183.794027-91.897014 247.611398-173.583248 66.370065-86.791624 79.13354-186.346722 53.606591-293.559905-15.316169 12.763474-12.763474 25.526948-15.316168 38.290422-20.421559 125.082046-68.92276 237.400619-168.477859 319.086854-176.135943 140.398215-472.248543 76.580845-561.592862-125.082047z m469.695848-324.192243c10.210779 0 28.079643-2.552695 33.185033 12.763474 5.10539 12.763474-12.763474 15.316169-20.421559 25.526949l-40.843117 40.843117c-12.763474 12.763474-28.079643 22.974253-45.948507 28.079643-15.316169 2.552695-33.185033 7.658084-43.395812-10.210779-7.658084-12.763474 7.658084-22.974253 15.316169-33.185033 25.526948-30.632338 51.053897-66.370065 102.107793-63.817371z" fill="#881D23" p-id="1276"></path></svg>